<svg xmlns="http://www.w3.org/2000/svg" xmlns:xlink="http://www.w3.org/1999/xlink" viewBox="0 0 817.15 798.86"><style><![CDATA[.K{stroke-miterlimit:1}]]></style><defs><linearGradient id="A" x1="347.27" y1="464.96" x2="669.81" y2="142.42" xlink:href="#F"><stop offset="0" stop-color="#fff"/><stop offset=".04" stop-color="#e8f3f9"/><stop offset=".13" stop-color="#b1d6ea"/><stop offset=".23" stop-color="#82bdde"/><stop offset=".33" stop-color="#5ba9d3"/><stop offset=".42" stop-color="#3d99cb"/><stop offset=".52" stop-color="#278ec6"/><stop offset=".61" stop-color="#1a87c2"/><stop offset=".69" stop-color="#1685c1"/></linearGradient><linearGradient id="B" x1="45.83" y1="527.97" x2="439.48" y2="300.7" xlink:href="#F"><stop offset=".31" stop-color="#e97010"/><stop offset=".37" stop-color="#ea7519"/><stop offset=".47" stop-color="#ec8432"/><stop offset=".6" stop-color="#f09c5a"/><stop offset=".75" stop-color="#f5bd91"/><stop offset=".91" stop-color="#fbe7d7"/><stop offset="1" stop-color="#fff"/></linearGradient><linearGradient id="C" x1="375.6" y1="366.93" x2="375.6" y2="796.59" xlink:href="#F"><stop offset="0" stop-color="#fff"/><stop offset=".11" stop-color="#fdf1c8"/><stop offset=".27" stop-color="#fcdf82"/><stop offset=".41" stop-color="#fad14b"/><stop offset=".53" stop-color="#f9c723"/><stop offset=".63" stop-color="#f8c00a"/><stop offset=".69" stop-color="#f8be01"/></linearGradient><linearGradient id="D" x1="374.92" y1="372.12" x2="692.04" y2="555.21" xlink:href="#F"><stop offset="0" stop-color="#fff"/><stop offset=".05" stop-color="#f3f9ea"/><stop offset=".22" stop-color="#c9e3a4"/><stop offset=".38" stop-color="#a8d26d"/><stop offset=".52" stop-color="#90c645"/><stop offset=".62" stop-color="#81bf2c"/><stop offset=".69" stop-color="#7cbc23"/></linearGradient><linearGradient id="E" x1="445.5" y1="514.33" x2="241.62" y2="161.21" xlink:href="#F"><stop offset="0" stop-color="#fff"/><stop offset=".03" stop-color="#f4f2f6"/><stop offset=".21" stop-color="#bbacc4"/><stop offset=".37" stop-color="#8d759d"/><stop offset=".51" stop-color="#6d4d81"/><stop offset=".62" stop-color="#58346f"/><stop offset=".69" stop-color="#512b69"/></linearGradient><linearGradient id="F" gradientUnits="userSpaceOnUse"/></defs><g stroke="#1685c1"><path d="M506.04 308.57L427.52 71.25l-47.9 305.28 31.4-76.76 32.53 78.38 373.51-69.52-311.02-.06z" fill="url(#A)" class="K"/><circle cx="555.16" cy="234.15" r="53.83" fill="#1685c1"/></g><g stroke="#e97010"><path d="M250.53 478.01L172.81 715.6l219.8-217.22-70.84 43.13 20.36-82.38L.3 293.31l250.23 184.7z" fill="url(#B)" class="K"/><circle cx="166.83" cy="508.74" r="53.83" transform="matrix(.707107 -.707107 .707107 .707107 -310.87 266.97)" fill="#e97010"/></g><g stroke="#f8be01"><path d="M393.11 605.46L601.98 742.8 450.05 473.71l23.03 79.67-74.16-41.26-249.7 286.35 243.89-193.01z" fill="url(#C)" class="K"/><circle cx="400.8" cy="694.3" r="53.83" transform="matrix(.707107 -.707107 .707107 .707107 -373.55 486.76)" fill="#f8be01"/></g><g stroke="#7cbc23"><path d="M550.94 500.27l189.6-162.92-300.55 71.87 82.93-.18-60.1 59.91 206.43 318.96-118.31-287.64z" fill="url(#D)" class="K"/><circle cx="638.46" cy="517.37" r="53.83" transform="matrix(.924745 -.380586 .380586 .924745 -148.84 281.87)" fill="#7cbc23"/></g><g stroke="#512b69"><path d="M313.38 296.73l-249.96 3.42 276.71 137.59-63.75-53.05 84.53-7.43L407.06.15l-93.68 296.58z" fill="url(#E)" class="K"/><circle cx="257.19" cy="227.48" r="53.83" transform="matrix(.301039 -.953612 .953612 .301039 -37.17 404.26)" fill="#512b69"/></g></svg>