<?xml version="1.0" encoding="UTF-8"?>
<svg enable-background="new 0 0 406.4 320.7" version="1.1" viewBox="0 0 406.4 320.7" xml:space="preserve" xmlns="http://www.w3.org/2000/svg">
<style type="text/css">
	.st0{fill:#DDF1FD;enable-background:new    ;}
	.st1{fill:#F1AF8C;}
	.st2{fill:#FFFFFF;}
	.st3{fill:url(#i);}
	.st4{fill:url(#h);}
	.st5{fill:#00B1EB;}
	.st6{fill:url(#g);}
	.st7{fill:url(#f);}
	.st8{fill:url(#e);}
	.st9{fill:url(#d);}
	.st10{fill:url(#c);}
	.st11{fill:url(#b);}
	.st12{fill:url(#a);}
	.st13{fill:url(#r);}
	.st14{fill:#3F3D56;}
	.st15{fill:url(#q);}
	.st16{fill:url(#p);}
	.st17{fill:url(#o);}
	.st18{opacity:0.45;fill:#00B1EB;enable-background:new    ;}
	.st19{fill:url(#n);}
	.st20{opacity:0.51;fill:#00B1EB;enable-background:new    ;}
	.st21{fill:url(#m);}
	.st22{fill:url(#l);}
	.st23{fill:url(#k);}
	.st24{fill:url(#j);}
</style>
<title>IT Support</title>
<path class="st0" d="m361 309.7c21.2-8 40.3-25.1 44.5-47.4 3.4-18.4-3.6-37-12.2-53.6s-19-32.7-23-50.9c-7.5-33.9 7.9-71.6-6.7-103.1-4.4-9.5-11.3-17.6-19-24.6-33.8-30.2-84.7-36.9-128.1-23.6s-79.7 44.7-106.3 81.5c-11 15.2-20.6 31.4-32.6 45.7-16 19.1-36.7 35.9-43.7 59.9-5.1 17.3-2 36 4 53 9.2 26.1 49 72.4 67.9 72.3 42.2-0.2 123.1 1.9 162.3 0.4 29.4-1.2 62.3 2 92.9-9.6z"/>
<path class="st1" d="m180.2 274.6c-1 2.9-1.9 6.1-0.4 8.8 1 1.5 2.3 2.7 3.8 3.6l13.8 9.4c2.6 1.8 5.5 3.6 8.6 3.9s6.8-1.8 7.1-5c0.3-3.7-3.5-6.2-5.3-9.4-2.4-4.2-1.1-9.5 0.2-14.1 3.1-11.8 5.4-23.8 6.8-35.9-2.8-1.2-11.1-6.4-14-5.5-3.3 1-6.3 10.2-7.8 13.2-5 10-9.3 20.4-12.8 31z"/>
<path class="st2" d="m206.7 195.5c-3.6 10.2-7.4 20.4-13.1 29.5-0.2 0.3-0.3 0.6-0.3 0.9 0.1 0.3 0.3 0.6 0.6 0.8 5.8 5 12 10.3 19.6 11.4 0.5 0.1 1 0.1 1.5-0.1 0.4-0.3 0.8-0.8 0.9-1.3 4.8-11.2 6.6-23.5 6.4-35.6-0.1-6.1-0.6-12.1-1.4-18.1-0.2-1.5-0.3-7.9-1.6-8.7-1.9-1.1-4.1 2.8-4.9 4.1-3.6 5.2-5.7 11.2-7.7 17.1z"/>
<linearGradient id="i" x1="270.74" x2="202.24" y1="85.201" y2="82.191" gradientTransform="matrix(1 0 0 -1 -4.03 290.55)" gradientUnits="userSpaceOnUse">
	<stop offset=".01"/>
	<stop stop-opacity="0" offset="1"/>
</linearGradient>
<path class="st3" d="m222.4 176.1s-4.5 1.7-8.2 14.4-12.4 43.5-12.4 43.5 13.6 6.8 16.9 4.2 3.7-62.1 3.7-62.1z"/>
<path class="st2" d="m260.8 163c7.4-0.2 14.9 0.1 22 2.1s13.9 5.8 18.5 11.5c5.2 6.3 7.4 14.6 7.9 22.8s-0.6 16.3-1.4 24.5c-1.9 19.1-2.4 38.2-1.5 57.3 0.2 4.6 2.8 28.5-0.4 31.8-2 2.1 2 4.1-0.9 4.8-23.3 5.6-65.2 2.9-87.2-6.5-5.6-2.4-11.2-5.7-14-11.1-3-5.9 5.1-29.1 6.1-35.7 2.9-19.9 5.1-40 6.4-60.1 0.6-8.9-0.1-18.5 1.7-27.3 1.3-6.4 5.4-8.1 11.3-9.6 10.3-2.6 20.9-4.2 31.5-4.5z"/>
<linearGradient id="h" x1="441.65" x2="219.2" y1="-123.71" y2="81.785" gradientTransform="matrix(1 0 0 -1 -4.03 290.55)" gradientUnits="userSpaceOnUse">
	<stop offset=".01"/>
	<stop stop-opacity="0" offset="1"/>
</linearGradient>
<path class="st4" d="m280 267.3c-0.8 4-1.8 8.3-4.5 11.3-2.2 2.2-4.9 3.8-7.8 4.8-13.9 5.2-29.8 4.4-43.1 11-0.9 0.4-1.8 1-2.6 1.7-2.6 2.5-1.9 7 0.2 10 4.5 6.6 13.3 8.5 21.3 9.7 19.1 3 38.5 5.5 57.6 2.4 1-0.1 2-0.5 2.9-1.1 0.7-0.8 1.1-1.7 1.2-2.7 4.3-19.2 0.9-39.1 0.8-58.8 0-11.3 1-22.7 0.2-34-0.4-7-1.9-14-4.3-20.6-1.8-4.5-7-14.4-10.1-5.2-4.9 14.6-6.4 30.3-8.1 45.5-1.1 8.7-2.1 17.4-3.7 26z"/>
<path class="st5" d="m124.3 302.4h161.6c4.5 0 8.2 3.7 8.2 8.2s-3.7 8.2-8.2 8.2h-161.6c-4.5 0-8.2-3.7-8.2-8.2s3.7-8.2 8.2-8.2z"/>
<linearGradient id="g" x1="204.74" x2="206.43" y1="15.78" y2="-12.73" gradientTransform="matrix(1 0 0 -1 0 320)" gradientUnits="userSpaceOnUse">
	<stop offset=".01"/>
	<stop stop-opacity="0" offset="1"/>
</linearGradient>
<path class="st6" d="m124.3 302.4h161.6c4.5 0 8.2 3.7 8.2 8.2s-3.7 8.2-8.2 8.2h-161.6c-4.5 0-8.2-3.7-8.2-8.2s3.7-8.2 8.2-8.2z"/>
<path class="st1" d="m243 178.6c-3.3-0.5-5.2-3.9-3.7-11.9 0.2-0.9 0.4-1.8 0.6-2.6 0-0.2 0.1-0.3 0.1-0.5 0.4-1.2 0.8-2.5 1.2-3.7 1.1-3 1.7-6.1 1.7-9.2-0.1-2.3-0.3-4.7 0.6-6.8 0.8-1.8 2.1-3.3 3.7-4.5 3.6-2.8 14-7.9 16-1.1 0.9 2.9 0.2 6.3 0.2 9.3-0.2 4.3 0.6 8.6 2.3 12.5 2.2 4.3-14.6 19.8-22.7 18.5z"/>
<linearGradient id="f" x1="259.23" x2="253.39" y1="165.33" y2="119.6" gradientTransform="matrix(1 0 0 -1 -4.03 290.55)" gradientUnits="userSpaceOnUse">
	<stop offset=".01"/>
	<stop stop-opacity="0" offset="1"/>
</linearGradient>
<path class="st7" d="m240.6 162.3s18.4-7 22-18.1l-19.6 6.4s-0.5 10.2-2.4 11.7z"/>
<path class="st2" d="m290.6 186.2c-1.9 20.9 1.6 42 10.1 61.2 0.3 0.7 0.7 1.3 1.2 1.9 0.9 0.6 1.9 0.8 3 0.7 8.2 0.2 16.3-2.4 22.9-7.3 2-1.5 3.9-3.4 4-5.8 0-1.3-0.2-2.5-0.7-3.7-5.1-14.8-11.1-29.4-17.9-43.5-2.5-5.2-5.9-11.4-12-13.7-7.3-2.8-10.1 4.7-10.6 10.2z"/>
<path class="st5" d="m254.9 198.2c5.5-5.8 9.5-12.7 13.4-19.6 2.4-4.2 4.9-8.6 5.2-13.4 0.1-0.5 0-1.1-0.3-1.6-0.2-0.3-0.6-0.6-0.9-0.9l-7.5-5.1c-0.1 4.6-3.4 8.6-7.2 11.2-4 2.8-15.4 5.9-13 11.8 0.7 1.5 9.6 18.2 10.3 17.6z"/>
<path class="st5" d="m243 178.6c-2.3 4.4-4.8 8.8-7.5 12.9-1.1 1.6-2.3 3.3-4 4-0.2 0.1-0.5 0.2-0.7 0.1-0.4-0.1-0.5-0.7-0.6-1.2-0.4-7.7-0.7-15.5 1.1-23 0.6-2.7 1.7-5.2 3.2-7.4 0.5-0.7 4.9-3.8 6.7-4.1-0.4 1.2-0.8 2.5-1.2 3.7-0.1 0.1-0.1 0.2-0.1 0.4v0.1c-0.2 0.9-0.4 1.7-0.6 2.6-1.5 8 0.4 11.3 3.7 11.9z"/>
<linearGradient id="e" x1="253.75" x2="274.92" y1="123.3" y2="103.26" gradientTransform="matrix(1 0 0 -1 -4.03 290.55)" gradientUnits="userSpaceOnUse">
	<stop stop-color="#fff" stop-opacity="0" offset=".02"/>
	<stop stop-color="#fff" stop-opacity=".39" offset=".58"/>
	<stop stop-color="#fff" offset="1"/>
</linearGradient>
<path class="st8" d="m254.9 198.2c5.5-5.8 9.5-12.7 13.4-19.6 2.4-4.2 4.9-8.6 5.2-13.4 0.1-0.5 0-1.1-0.3-1.6-0.2-0.3-0.6-0.6-0.9-0.9l-7.5-5.1c-0.1 4.6-3.4 8.6-7.2 11.2-4 2.8-15.4 5.9-13 11.8 0.7 1.5 9.6 18.2 10.3 17.6z"/>
<linearGradient id="d" x1="250.41" x2="229.94" y1="113.56" y2="112.15" gradientTransform="matrix(1 0 0 -1 -4.03 290.55)" gradientUnits="userSpaceOnUse">
	<stop stop-color="#fff" stop-opacity="0" offset=".02"/>
	<stop stop-color="#fff" stop-opacity=".39" offset=".58"/>
	<stop stop-color="#fff" offset="1"/>
</linearGradient>
<path class="st9" d="m243 178.6c-2.3 4.4-4.8 8.8-7.5 12.9-1.1 1.6-2.3 3.3-4 4-0.2 0.1-0.5 0.2-0.7 0.1-0.4-0.1-0.5-0.7-0.6-1.2-0.4-7.7-0.7-15.5 1.1-23 0.6-2.7 1.7-5.2 3.2-7.4 0.5-0.7 4.9-3.8 6.7-4.1-0.4 1.2-0.8 2.5-1.2 3.7-0.1 0.1-0.1 0.2-0.1 0.4v0.1c-0.2 0.9-0.4 1.7-0.6 2.6-1.5 8 0.4 11.3 3.7 11.9z"/>
<path class="st1" d="m297.6 306.2 43.8-8.4c2.6-0.5 5.3-1 7.3-2.7 2.8-2.3 3.8-6.2 3.4-9.8s-2-6.9-3.6-10.2c-6.2-12.9-18.8-36-18.9-34.6-7.7 1.6-14 1.7-20.6 5.9-1.1 0.6-2.1 1.5-2.8 2.6-2.6 5 4.6 12.3 7 16.1 0.9 1.2 1.6 2.6 1.8 4.1 0.1 1.1-0.1 2.1-0.6 3.1-2.4 5.8-10.8 9.2-16 12.2-6.8 4.1-14.4 6.7-22.3 7.5-6.1 0.5-12.4-0.3-18.4 1.1-7.4 1.8-13.7 6.7-17.2 13.4 3.6 2.3 8.2 1 12.3-0.1 7.6-1.9 15.4-2.5 23.3-1.9 5.2 0.5 19.1 6.4 21.5 1.7z"/>
<path class="st5" d="m229.9 318.8h-124l-32.7-83c-1.5-3.7 0.3-8 4.1-9.5 0.9-0.3 1.8-0.5 2.7-0.5h97.3c9.6 0 18.3 5.9 21.9 14.9l30.7 78.1z"/>
<linearGradient id="c" x1="245.57" x2="143.95" y1="174.99" y2="-4.5529" gradientTransform="matrix(1 0 0 -1 -4.03 290.55)" gradientUnits="userSpaceOnUse">
	<stop offset=".01"/>
	<stop stop-opacity="0" offset="1"/>
</linearGradient>
<path class="st10" d="m229.9 318.8h-124l-32.7-83c-1.5-3.7 0.3-8 4.1-9.5 0.9-0.3 1.8-0.5 2.7-0.5h97.3c9.6 0 18.3 5.9 21.9 14.9l30.7 78.1z"/>
<linearGradient id="b" x1="181.28" x2="119.18" y1="-67.199" y2="105.56" gradientTransform="matrix(1 0 0 -1 -4.03 290.55)" gradientUnits="userSpaceOnUse">
	<stop offset=".01"/>
	<stop stop-opacity=".82" offset=".09"/>
	<stop stop-opacity="0" offset="1"/>
</linearGradient>
<path class="st11" d="m223.6 318.9h-117.8l-31.1-78.8c-1.4-3.6 0.3-7.6 3.9-9 0.8-0.3 1.7-0.5 2.5-0.5h92.5c9.2 0 17.4 5.6 20.8 14.1l29.2 74.2z"/>
<path class="st5" d="m239 45c3-1.8 6-3.6 9.4-4.2s8-0.3 10.3 2.3c-6 0.4-11.6 3.4-15.3 8.1-0.2 0.3-0.4 0.5-0.8 0.7-0.3 0-0.6 0-0.8-0.2-1.4-0.5-11.7 1.8-12.3 0.6 0 0 8.2-6.5 9.5-7.3z"/>
<linearGradient id="a" x1="246.96" x2="249.03" y1="254.64" y2="233" gradientTransform="matrix(1 0 0 -1 -4.03 290.55)" gradientUnits="userSpaceOnUse">
	<stop offset=".01"/>
	<stop stop-opacity="0" offset="1"/>
</linearGradient>
<path class="st12" d="m239 45c3-1.8 6-3.6 9.4-4.2s8-0.3 10.3 2.3c-6 0.4-11.6 3.4-15.3 8.1-0.2 0.3-0.4 0.5-0.8 0.7-0.3 0-0.6 0-0.8-0.2-1.4-0.5-11.7 1.8-12.3 0.6 0 0 8.2-6.5 9.5-7.3z"/>
<ellipse class="st5" cx="216.6" cy="106.3" rx="12.1" ry="15"/>
<ellipse class="st5" cx="219.1" cy="108" rx="11.2" ry="13.8"/>
<linearGradient id="r" x1="224.6" x2="214.15" y1="233.47" y2="192.53" gradientTransform="matrix(1 0 0 -1 0 320)" gradientUnits="userSpaceOnUse">
	<stop offset=".01"/>
	<stop stop-opacity="0" offset="1"/>
</linearGradient>
<ellipse class="st13" cx="219.1" cy="108" rx="11.2" ry="13.8"/>
<path class="st1" d="m215.2 80.1 2.8 51.4s1.3 19.4 20.5 19.6c23.1 0.2 30.1-13.2 33.6-23.4s6.7-40.2 0-48.5-44.3-28.7-56.9 0.9z"/>
<path class="st14" d="m229.8 49.3c-9.1-0.2-19.4 4.1-23.5 12.6-2 4-2.1 8.7-0.3 12.7 0.3 0.6 0.6 1.2 0.8 1.9 0.1 0.7 0.1 1.4 0 2.2-0.2 3.5 1.4 6.9 4.3 9 1.6 1.2 3.5 1.9 4.8 3.4l-0.5-9.6c-0.2-1.1 0.4-2.1 1.5-2.4l6.1-2.8s1.9 1.4 2.1 1.5c1 0.4 2.1 0.6 3.2 0.6 2.4 0.1 4.8-0.1 7.1-0.4 5.1-0.7 10-2.6 14.8-4.5-0.2 1.5-0.8 2.9-1.8 3.9l15.5 3c2.3 3.1 4.1 6.6 5.5 10.2 1.1 2.8 1.8 5.8 2.1 8.8 0.4 4.1 0 8.2-1.1 12.2 1.1-0.8 2-1.8 2.7-2.9 1.4 1 3 1.7 4.6 2.2 0.3 0.1 0.7 0.2 1.1 0.1 0.8-0.2 0.9-1.1 1-1.8 0.6-6.4 5.4-11.9 7.6-18.1 2.7-7.5 1.3-15.9-2.8-22.8-1.2-2.2-2.9-4.1-4.8-5.6-7.1-5.2-17.3-2.8-25.5-5.6-3.9-1.3-7-3.8-10.7-5.4-4.2-1.7-9.3-2.3-13.8-2.4z"/>
<linearGradient id="q" x1="271.43" x2="254.5" y1="225.2" y2="211.65" gradientTransform="matrix(1 0 0 -1 -4.03 290.55)" gradientUnits="userSpaceOnUse">
	<stop offset=".01"/>
	<stop stop-opacity="0" offset="1"/>
</linearGradient>
<path class="st15" d="m229.8 49.3c-9.1-0.2-19.4 4.1-23.5 12.6-2 4-2.1 8.7-0.3 12.7 0.3 0.6 0.6 1.2 0.8 1.9 0.1 0.7 0.1 1.4 0 2.2-0.2 3.5 1.4 6.9 4.3 9 1.6 1.2 3.5 1.9 4.8 3.4l-0.5-9.6c-0.2-1.1 0.4-2.1 1.5-2.4l6.1-2.8s1.9 1.4 2.1 1.5c1 0.4 2.1 0.6 3.2 0.6 2.4 0.1 4.8-0.1 7.1-0.4 5.1-0.7 10-2.6 14.8-4.5-0.2 1.5-0.8 2.9-1.8 3.9l15.5 3c2.3 3.1 4.1 6.6 5.5 10.2 1.1 2.8 1.8 5.8 2.1 8.8 0.4 4.1 0 8.2-1.1 12.2 1.1-0.8 2-1.8 2.7-2.9 1.4 1 3 1.7 4.6 2.2 0.3 0.1 0.7 0.2 1.1 0.1 0.8-0.2 0.9-1.1 1-1.8 0.6-6.4 5.4-11.9 7.6-18.1 2.7-7.5 1.3-15.9-2.8-22.8-1.2-2.2-2.9-4.1-4.8-5.6-7.1-5.2-17.3-2.8-25.5-5.6-3.9-1.3-7-3.8-10.7-5.4-4.2-1.7-9.3-2.3-13.8-2.4z"/>
<ellipse class="st5" cx="283.5" cy="108.2" rx="12" ry="14.8"/>
<linearGradient id="p" x1="285.59" x2="271.24" y1="212.24" y2="209.37" gradientTransform="matrix(1 0 0 -1 0 320)" gradientUnits="userSpaceOnUse">
	<stop offset=".01"/>
	<stop stop-opacity="0" offset="1"/>
</linearGradient>
<ellipse class="st16" cx="283.5" cy="108.2" rx="12" ry="14.8"/>
<ellipse class="st5" cx="288.1" cy="108.2" rx="12" ry="14.8"/>
<path class="st5" d="m288.2 94.6-6 0.6-1.4 0.1-6-29.5c-3.1-11.7-10.8-20.7-20.3-24.1-1.5-0.5-3.1-0.7-4.6-0.6l-4.1 0.4 2-0.5 4-1.1c1.2-0.3 2.5-0.5 3.8-0.5 10.7 0.4 20.8 9 24.5 21.3l8.1 33.9z"/>
<linearGradient id="o" x1="291.58" x2="259.12" y1="231.49" y2="217.37" gradientTransform="matrix(1 0 0 -1 -4.03 290.55)" gradientUnits="userSpaceOnUse">
	<stop offset=".01"/>
	<stop stop-opacity="0" offset="1"/>
</linearGradient>
<path class="st17" d="m288.2 94.6-6 0.6-1.4 0.1-6-29.5c-3.1-11.7-10.8-20.7-20.3-24.1-1.5-0.5-3.1-0.7-4.6-0.6l-4.1 0.4 2-0.5 4-1.1c1.2-0.3 2.5-0.5 3.8-0.5 10.7 0.4 20.8 9 24.5 21.3l8.1 33.9z"/>
<path class="st5" d="m288.2 94.6-6 0.6-6-29.6c-3.2-11.8-10.9-20.8-20.5-24.4-1.5-0.5-3.1-0.7-4.7-0.6l-3.3 0.3 4-1.1c1.2-0.3 2.5-0.5 3.8-0.5 10.7 0.4 20.8 9 24.5 21.3l8.2 34z"/>
<path class="st18" d="M15.6,5.2h146.6c8.6,0,15.6,7,15.6,15.6V193c0,8.6-7,15.6-15.6,15.6H15.6C7,208.6,0,201.6,0,193V20.8  C0,12.2,7,5.2,15.6,5.2z"/>
<linearGradient id="n" x1="58.42" x2="52.45" y1="252.81" y2="133.46" gradientTransform="matrix(1 0 0 -1 0 320)" gradientUnits="userSpaceOnUse">
	<stop stop-color="#fff" stop-opacity="0" offset=".02"/>
	<stop stop-color="#fff" stop-opacity=".39" offset=".58"/>
	<stop stop-color="#fff" stop-opacity=".68" offset=".68"/>
	<stop stop-color="#fff" offset="1"/>
</linearGradient>
<circle class="st19" cx="53.7" cy="162.5" r="26.6"/>
<rect class="st5" x="15.9" y="24.5" width="113.7" height="6.4"/>
<rect class="st20" x="19.3" y="108.6" width="113.7" height="6.4"/>
<rect class="st5" x="19.3" y="97.7" width="80.8" height="6.4"/>
<rect class="st5" x="111.2" y="97.7" width="54.1" height="6.4"/>
<rect class="st5" x="81.9" y="57.2" width="83.2" height="5.7"/>
<rect class="st20" x="64.5" y="67.2" width="89" height="5.7"/>
<rect class="st5" x="20.8" y="57.2" width="54.7" height="5.7"/>
<rect class="st5" x="44.8" y="77" width="120.3" height="5.7"/>
<rect class="st20" x="20.8" y="77" width="17.7" height="5.7"/>
<rect class="st20" x="85.7" y="87.1" width="79.4" height="5.7"/>
<rect class="st5" x="20.8" y="87.1" width="54.7" height="5.7"/>
<rect class="st5" x="20.8" y="67" width="35.2" height="5.7"/>
<path class="st5" d="m59.6 145c-1.6 1.9-1.8 4.6-1.5 7 0.1 0.4 0.1 0.9 0 1.3s-0.3 0.7-0.6 1c-4.2 5.3-9 10.1-14.2 14.4-0.1 0.1-0.3 0.2-0.5 0.3-0.3 0.1-0.7 0-1-0.1-1.5-0.6-3.1-1.2-4.7-0.9-1.4 0.4-2.6 1.5-3.1 2.9s-0.6 2.9-0.2 4.4c1.7-1.4 3.5-2.8 5.3-4l2.6 2.6c0.3 0.2 0.4 0.5 0.5 0.9-0.1 0.2-0.2 0.4-0.3 0.5l-3.9 4.6c2.6 1 5.6 0.5 7.7-1.3 2-1.9 2.3-5.4 0.3-7.4l14.9-16.7c2.1 1.5 4.9 1.5 6.9-0.1 1.9-1.6 2.9-4.1 2.6-6.7-1.9 1.1-3.6 2.4-5.1 3.9l-3-3.7c1.1-1 5.2-3.8 2.5-4.8-1.8-0.4-4.1 0.6-5.2 1.9z"/>
<linearGradient id="m" x1="152.93" x2="129.22" y1="187.35" y2="130.61" gradientTransform="matrix(1 0 0 -1 -4.03 290.55)" gradientUnits="userSpaceOnUse">
	<stop stop-color="#fff" stop-opacity="0" offset=".02"/>
	<stop stop-color="#fff" stop-opacity=".39" offset=".58"/>
	<stop stop-color="#fff" stop-opacity=".68" offset=".68"/>
	<stop stop-color="#fff" offset="1"/>
</linearGradient>
<path class="st21" d="m145.7 172 1.4-4.6s-5.6-4.5-5.8-4.2l-0.2-3.3 5.2-5.5-2.4-4.1s-7 1.1-7 1.5c-1.4-1.3-2.8-2.4-4.4-3.4l-0.2-7.5-4.6-1.3s-4.2 5.8-3.9 6c0 0-3.2 0.7-4.8 1.2l-5.2-4.5-4 2.6s1.2 5.6 1.7 6.7c-1.1 1.2-2.5 2.6-2.5 2.6l-7.5 1.2-0.6 4.7s5.3 2.8 6.3 3.1c0 1.5 0.3 3 0.7 4.5l-4.1 6.3 3.1 3.6s4.1-1.4 5.8-2.2c1.7 1.5 4 3.3 4 3.3l1.9 7.3 4.8 0.2s2.3-5.3 2.5-6.5c1.5-0.2 3.1-0.2 4.6-0.1l6.7 3.5 3.4-3.4c-1-2.2-2-4.3-3.2-6.3 0.4-0.5 0.8-1.1 1.1-1.6l7.2 0.2zm-22.2 0.2c-5.2 0-9.5-4.2-9.5-9.4s4.2-9.5 9.4-9.5 9.5 4.2 9.5 9.4c0.1 5.2-4.1 9.5-9.4 9.5z"/>
<linearGradient id="l" x1="221.65" x2="223.72" y1="196.62" y2="226.17" gradientTransform="matrix(1 0 0 -1 -4.03 290.55)" gradientUnits="userSpaceOnUse">
	<stop offset=".01"/>
	<stop stop-opacity="0" offset="1"/>
</linearGradient>
<path class="st22" d="m208.7 77.6c1.8-3.5 5.6-5.6 9.5-6.2s7.8-0.1 11.7 0.5c-3.8 3-14.2 7.5-14.4 8.3-0.1 1.4-0.2 2.8-0.1 4.3 0.1 2.1 0.2 4.2 0.2 6.3-1-0.9-2-1.8-3.2-2.4-1-0.4-1.9-1-2.7-1.7-2.1-2.7-2.5-6.2-1-9.1z"/>
<path class="st5" d="m259.6 144.1c-4.5-0.1-9-0.8-13.3-2.2-1.1-0.3-1.7-1.4-1.3-2.5s1.4-1.7 2.5-1.3c10.3 3.1 18.1 2.7 23-1.2 6.7-5.3 6.3-15.4 6.3-15.5-0.1-1.1 0.8-2 1.9-2.1s2 0.8 2.1 1.9c0 0.5 0.5 12.3-7.8 18.8-3.5 2.7-8 4.1-13.4 4.1z"/>
<linearGradient id="k" x1="262.01" x2="272.31" y1="169.95" y2="148.78" gradientTransform="matrix(1 0 0 -1 -4.03 290.55)" gradientUnits="userSpaceOnUse">
	<stop stop-color="#fff" stop-opacity="0" offset=".02"/>
	<stop stop-color="#fff" stop-opacity=".39" offset=".58"/>
	<stop stop-color="#fff" stop-opacity=".68" offset=".68"/>
	<stop stop-color="#fff" offset="1"/>
</linearGradient>
<path class="st23" d="m259.6 144.1c-4.5-0.1-9-0.8-13.3-2.2-1.1-0.3-1.7-1.4-1.3-2.5s1.4-1.7 2.5-1.3c10.3 3.1 18.1 2.7 23-1.2 6.7-5.3 6.3-15.4 6.3-15.5-0.1-1.1 0.8-2 1.9-2.1s2 0.8 2.1 1.9c0 0.5 0.5 12.3-7.8 18.8-3.5 2.7-8 4.1-13.4 4.1z"/>
<path class="st5" d="m247.4 134.6c1.1 0.6 2 1.6 2.5 2.7 0.4 1.7-0.9 3.3-2.2 4.4-1.2 1-2.6 1.7-4.1 2-2.3 0.3-4.4-0.9-6.3-2.2-1-0.6-1.9-1.5-2.6-2.5-1.7-3.1 0.5-7 3.5-8.3 3.1-1.4 6.6 2.2 9.2 3.9z"/>
<linearGradient id="j" x1="251.04" x2="238.62" y1="163.59" y2="138.56" gradientTransform="matrix(1 0 0 -1 -4.03 290.55)" gradientUnits="userSpaceOnUse">
	<stop offset=".01"/>
	<stop stop-opacity="0" offset="1"/>
</linearGradient>
<path class="st24" d="m247.4 134.6c1.1 0.6 2 1.6 2.5 2.7 0.4 1.7-0.9 3.3-2.2 4.4-1.2 1-2.6 1.7-4.1 2-2.3 0.3-4.4-0.9-6.3-2.2-1-0.6-1.9-1.5-2.6-2.5-1.7-3.1 0.5-7 3.5-8.3 3.1-1.4 6.6 2.2 9.2 3.9z"/>
</svg>
